<svg xmlns="http://www.w3.org/2000/svg" viewBox="0 0 32 32" shape-rendering="crispEdges">
  <rect width="32" height="32" rx="4" fill="#0c2343"/>
  <!-- R (pixel-block, 5×7 at grid x=3..13, y=9..21) -->
  <g fill="#ffffff">
    <rect x="3" y="9" width="2" height="2"/>
    <rect x="5" y="9" width="2" height="2"/>
    <rect x="7" y="9" width="2" height="2"/>
    <rect x="9" y="9" width="2" height="2"/>
    <rect x="3" y="11" width="2" height="2"/>
    <rect x="11" y="11" width="2" height="2"/>
    <rect x="3" y="13" width="2" height="2"/>
    <rect x="11" y="13" width="2" height="2"/>
    <rect x="3" y="15" width="2" height="2"/>
    <rect x="5" y="15" width="2" height="2"/>
    <rect x="7" y="15" width="2" height="2"/>
    <rect x="9" y="15" width="2" height="2"/>
    <rect x="3" y="17" width="2" height="2"/>
    <rect x="7" y="17" width="2" height="2"/>
    <rect x="3" y="19" width="2" height="2"/>
    <rect x="9" y="19" width="2" height="2"/>
    <rect x="3" y="21" width="2" height="2"/>
    <rect x="11" y="21" width="2" height="2"/>
  </g>
  <!-- M (pixel-block, 7×7 at grid x=15..27, y=9..21) -->
  <g fill="#ffffff">
    <rect x="15" y="9" width="2" height="2"/>
    <rect x="27" y="9" width="2" height="2"/>
    <rect x="15" y="11" width="2" height="2"/>
    <rect x="17" y="11" width="2" height="2"/>
    <rect x="25" y="11" width="2" height="2"/>
    <rect x="27" y="11" width="2" height="2"/>
    <rect x="15" y="13" width="2" height="2"/>
    <rect x="19" y="13" width="2" height="2"/>
    <rect x="23" y="13" width="2" height="2"/>
    <rect x="27" y="13" width="2" height="2"/>
    <rect x="15" y="15" width="2" height="2"/>
    <rect x="21" y="15" width="2" height="2"/>
    <rect x="27" y="15" width="2" height="2"/>
    <rect x="15" y="17" width="2" height="2"/>
    <rect x="27" y="17" width="2" height="2"/>
    <rect x="15" y="19" width="2" height="2"/>
    <rect x="27" y="19" width="2" height="2"/>
    <rect x="15" y="21" width="2" height="2"/>
    <rect x="27" y="21" width="2" height="2"/>
  </g>
  <!-- blueprint-blue accent dot, bottom-right -->
  <rect x="27" y="25" width="2" height="2" fill="#1856a6"/>
</svg>
